# Blender v2.79 (sub 0) OBJ File: 'body.obj'
# www.blender.org
mtllib blower.mtl
o BubbleTool_BubbleBlower
v -0.004102 -0.052387 0.007795
v -0.004102 -0.045282 0.011897
v -0.004102 -0.009742 -0.066068
v -0.004102 -0.002637 -0.061966
v 0.004102 -0.052387 0.007795
v 0.004102 -0.045282 0.011897
v 0.004102 -0.009742 -0.066068
v 0.004102 -0.002637 -0.061966
v -0.004102 -0.009742 -0.066068
v -0.004102 -0.002637 -0.061966
v 0.004102 -0.009742 -0.066068
v 0.004102 -0.002637 -0.061966
v -0.004102 -0.000194 -0.074403
v -0.004102 -0.000194 -0.066199
v 0.004102 -0.000194 -0.074403
v 0.004102 -0.000194 -0.066199
v 0.005225 0.016115 -0.076348
v 0.005225 0.016115 -0.065486
v 0.010249 0.017639 -0.076348
v 0.010249 0.017639 -0.065486
v 0.014879 0.020114 -0.076348
v 0.014879 0.020114 -0.065486
v 0.018937 0.023445 -0.076348
v 0.018937 0.023445 -0.065486
v 0.022268 0.027503 -0.076348
v 0.022268 0.027503 -0.065486
v 0.024743 0.032133 -0.076348
v 0.024743 0.032133 -0.065486
v 0.026267 0.037157 -0.076348
v 0.026267 0.037157 -0.065486
v 0.026781 0.042382 -0.076348
v 0.026781 0.042382 -0.065486
v 0.026267 0.047607 -0.076348
v 0.026267 0.047607 -0.065486
v 0.024743 0.052631 -0.076348
v 0.024743 0.052631 -0.065486
v 0.022268 0.057261 -0.076348
v 0.022268 0.057261 -0.065486
v 0.018937 0.061319 -0.076348
v 0.018937 0.061319 -0.065486
v 0.014879 0.064650 -0.076348
v 0.014879 0.064650 -0.065486
v 0.010249 0.067125 -0.076348
v 0.010249 0.067125 -0.065486
v 0.005225 0.068649 -0.076348
v 0.005225 0.068649 -0.065486
v 0.000000 0.069163 -0.076348
v 0.000000 0.069163 -0.065486
v -0.005225 0.068649 -0.076348
v -0.005225 0.068649 -0.065486
v -0.010249 0.067125 -0.076348
v -0.010249 0.067125 -0.065486
v -0.014879 0.064650 -0.076348
v -0.014879 0.064650 -0.065486
v -0.018937 0.061319 -0.076348
v -0.018937 0.061319 -0.065486
v -0.022268 0.057261 -0.076348
v -0.022268 0.057261 -0.065486
v -0.024743 0.052631 -0.076348
v -0.024743 0.052631 -0.065486
v -0.026267 0.047607 -0.076348
v -0.026267 0.047607 -0.065486
v -0.026781 0.042382 -0.076348
v -0.026781 0.042382 -0.065486
v -0.026267 0.037157 -0.076348
v -0.026267 0.037157 -0.065486
v -0.024743 0.032133 -0.076348
v -0.024743 0.032133 -0.065486
v -0.022268 0.027503 -0.076348
v -0.022268 0.027503 -0.065486
v -0.018937 0.023445 -0.076348
v -0.018937 0.023445 -0.065486
v -0.014879 0.020114 -0.076348
v -0.014879 0.020114 -0.065486
v -0.010249 0.017639 -0.076348
v -0.010249 0.017639 -0.065486
v -0.005225 0.016115 -0.076348
v -0.005225 0.016115 -0.065486
v 0.007185 0.006260 -0.076348
v 0.014094 0.008356 -0.076348
v 0.020462 0.011759 -0.076348
v 0.026043 0.016340 -0.076348
v 0.030623 0.021921 -0.076348
v 0.034026 0.028288 -0.076348
v 0.036122 0.035197 -0.076348
v 0.036830 0.042382 -0.076348
v 0.036122 0.049567 -0.076348
v 0.034026 0.056476 -0.076348
v 0.030623 0.062843 -0.076348
v 0.026043 0.068424 -0.076348
v 0.020462 0.073005 -0.076348
v 0.014094 0.076408 -0.076348
v 0.007185 0.078504 -0.076348
v 0.000000 0.079212 -0.076348
v -0.007185 0.078504 -0.076348
v -0.014094 0.076408 -0.076348
v -0.020461 0.073005 -0.076348
v -0.026042 0.068424 -0.076348
v -0.030623 0.062843 -0.076348
v -0.034026 0.056476 -0.076348
v -0.036122 0.049567 -0.076348
v -0.036830 0.042382 -0.076348
v -0.036122 0.035197 -0.076348
v -0.034026 0.028288 -0.076348
v -0.030623 0.021921 -0.076348
v -0.026042 0.016340 -0.076348
v -0.020461 0.011759 -0.076348
v -0.014094 0.008356 -0.076348
v -0.007185 0.006260 -0.076348
v 0.007185 0.006260 -0.065486
v 0.014094 0.008356 -0.065486
v 0.020462 0.011759 -0.065486
v 0.026043 0.016340 -0.065486
v 0.030623 0.021921 -0.065486
v 0.034026 0.028288 -0.065486
v 0.036122 0.035197 -0.065486
v 0.036830 0.042382 -0.065486
v 0.036122 0.049567 -0.065486
v 0.034026 0.056476 -0.065486
v 0.030623 0.062843 -0.065486
v 0.026043 0.068424 -0.065486
v 0.020462 0.073005 -0.065486
v 0.014094 0.076408 -0.065486
v 0.007185 0.078504 -0.065486
v 0.000000 0.079212 -0.065486
v -0.007185 0.078504 -0.065486
v -0.014094 0.076408 -0.065486
v -0.020461 0.073005 -0.065486
v -0.026042 0.068424 -0.065486
v -0.030623 0.062843 -0.065486
v -0.034026 0.056476 -0.065486
v -0.036122 0.049567 -0.065486
v -0.036830 0.042382 -0.065486
v -0.036122 0.035197 -0.065486
v -0.034026 0.028288 -0.065486
v -0.030623 0.021921 -0.065486
v -0.026042 0.016340 -0.065486
v -0.020461 0.011759 -0.065486
v -0.014094 0.008356 -0.065486
v -0.007185 0.006260 -0.065486
vt 0.000000 0.000000
vt 1.000000 0.000000
vt 1.000000 1.000000
vt 0.000000 1.000000
vt 0.000000 0.000000
vt 1.000000 0.000000
vt 1.000000 1.000000
vt 0.000000 1.000000
vt 0.000000 0.000000
vt 1.000000 1.000000
vt 0.000000 1.000000
vt 0.000000 0.000000
vt 1.000000 0.000000
vt 1.000000 1.000000
vt 0.000000 1.000000
vt 0.000000 0.000000
vt 1.000000 0.000000
vt 1.000000 1.000000
vt 0.000000 0.000000
vt 1.000000 0.000000
vt 0.000000 1.000000
vt 0.000000 0.000000
vt 1.000000 0.000000
vt 1.000000 1.000000
vt 0.000000 1.000000
vt 1.000000 1.000000
vt 0.000000 1.000000
vt 1.000000 1.000000
vt 0.000000 1.000000
vt 1.000000 0.000000
vt 1.000000 1.000000
vt 0.000000 1.000000
vt 0.000000 0.000000
vt 1.000000 0.000000
vt 1.000000 1.000000
vt 0.000000 1.000000
vt 0.000000 0.000000
vt 1.000000 0.000000
vt 1.000000 1.000000
vt 0.000000 1.000000
vt 0.000000 0.000000
vt 1.000000 0.000000
vt 1.000000 1.000000
vt 0.000000 1.000000
vt 0.000000 0.000000
vt 1.000000 0.000000
vt 1.000000 1.000000
vt 0.000000 1.000000
vt 0.000000 0.000000
vt 1.000000 0.000000
vt 1.000000 1.000000
vt 0.000000 1.000000
vt 0.000000 0.000000
vt 1.000000 0.000000
vt 1.000000 1.000000
vt 0.000000 1.000000
vt 0.000000 0.000000
vt 1.000000 0.000000
vt 1.000000 1.000000
vt 0.000000 1.000000
vt 0.000000 0.000000
vt 1.000000 0.000000
vt 1.000000 1.000000
vt 0.000000 1.000000
vt 0.000000 0.000000
vt 1.000000 0.000000
vt 1.000000 1.000000
vt 0.000000 1.000000
vt 0.000000 0.000000
vt 1.000000 0.000000
vt 1.000000 1.000000
vt 0.000000 1.000000
vt 0.000000 0.000000
vt 1.000000 0.000000
vt 1.000000 1.000000
vt 0.000000 1.000000
vt 0.000000 0.000000
vt 1.000000 0.000000
vt 1.000000 1.000000
vt 0.000000 1.000000
vt 0.000000 0.000000
vt 1.000000 0.000000
vt 1.000000 1.000000
vt 0.000000 1.000000
vt 0.000000 0.000000
vt 1.000000 0.000000
vt 1.000000 1.000000
vt 0.000000 1.000000
vt 0.000000 0.000000
vt 1.000000 0.000000
vt 1.000000 1.000000
vt 0.000000 1.000000
vt 0.000000 0.000000
vt 1.000000 0.000000
vt 1.000000 1.000000
vt 0.000000 1.000000
vt 0.000000 0.000000
vt 1.000000 0.000000
vt 1.000000 1.000000
vt 0.000000 1.000000
vt 0.000000 0.000000
vt 1.000000 0.000000
vt 1.000000 1.000000
vt 0.000000 1.000000
vt 0.000000 0.000000
vt 1.000000 0.000000
vt 1.000000 1.000000
vt 0.000000 1.000000
vt 0.000000 0.000000
vt 1.000000 0.000000
vt 1.000000 1.000000
vt 0.000000 1.000000
vt 0.000000 0.000000
vt 1.000000 0.000000
vt 1.000000 1.000000
vt 0.000000 1.000000
vt 0.000000 0.000000
vt 1.000000 0.000000
vt 1.000000 1.000000
vt 0.000000 1.000000
vt 0.000000 0.000000
vt 1.000000 0.000000
vt 1.000000 1.000000
vt 0.000000 1.000000
vt 0.000000 0.000000
vt 1.000000 0.000000
vt 1.000000 1.000000
vt 0.000000 1.000000
vt 0.000000 0.000000
vt 1.000000 0.000000
vt 1.000000 1.000000
vt 0.000000 1.000000
vt 0.000000 0.000000
vt 1.000000 0.000000
vt 1.000000 1.000000
vt 0.000000 1.000000
vt 0.000000 0.000000
vt 1.000000 0.000000
vt 1.000000 1.000000
vt 0.000000 1.000000
vt 0.000000 0.000000
vt 1.000000 0.000000
vt 1.000000 1.000000
vt 0.000000 1.000000
vt 0.000000 0.000000
vt 1.000000 0.000000
vt 1.000000 1.000000
vt 0.000000 1.000000
vt 0.000000 0.000000
vt 1.000000 0.000000
vt 1.000000 1.000000
vt 0.000000 1.000000
vt 0.000000 0.000000
vt 1.000000 0.000000
vt 1.000000 1.000000
vt 0.000000 1.000000
vt 0.000000 0.000000
vt 1.000000 0.000000
vt 1.000000 1.000000
vt 0.000000 1.000000
vt 0.000000 0.000000
vt 1.000000 0.000000
vt 1.000000 1.000000
vt 0.000000 1.000000
vt 0.000000 0.000000
vt 1.000000 0.000000
vt 1.000000 1.000000
vt 0.000000 1.000000
vt 0.000000 0.000000
vt 1.000000 0.000000
vt 1.000000 1.000000
vt 0.000000 1.000000
vt 0.000000 0.000000
vt 1.000000 0.000000
vt 0.000000 1.000000
vt 0.000000 0.000000
vt 1.000000 0.000000
vt 1.000000 1.000000
vt 0.000000 1.000000
vt 0.000000 0.000000
vt 1.000000 1.000000
vt 0.000000 1.000000
vt 0.000000 0.000000
vt 1.000000 1.000000
vt 0.000000 1.000000
vt 0.000000 0.000000
vt 1.000000 1.000000
vt 0.000000 1.000000
vt 0.000000 0.000000
vt 1.000000 1.000000
vt 0.000000 1.000000
vt 0.000000 0.000000
vt 1.000000 1.000000
vt 0.000000 1.000000
vt 0.000000 0.000000
vt 1.000000 1.000000
vt 0.000000 1.000000
vt 0.000000 0.000000
vt 1.000000 1.000000
vt 0.000000 1.000000
vt 0.000000 0.000000
vt 1.000000 1.000000
vt 0.000000 1.000000
vt 0.000000 0.000000
vt 1.000000 1.000000
vt 0.000000 1.000000
vt 0.000000 0.000000
vt 1.000000 1.000000
vt 0.000000 1.000000
vt 0.000000 0.000000
vt 1.000000 1.000000
vt 0.000000 1.000000
vt 0.000000 0.000000
vt 1.000000 1.000000
vt 0.000000 1.000000
vt 0.000000 0.000000
vt 1.000000 1.000000
vt 0.000000 1.000000
vt 0.000000 0.000000
vt 1.000000 1.000000
vt 0.000000 1.000000
vt 0.000000 0.000000
vt 1.000000 1.000000
vt 0.000000 1.000000
vt 0.000000 0.000000
vt 1.000000 1.000000
vt 0.000000 1.000000
vt 0.000000 0.000000
vt 1.000000 1.000000
vt 0.000000 1.000000
vt 0.000000 0.000000
vt 1.000000 1.000000
vt 0.000000 1.000000
vt 0.000000 0.000000
vt 1.000000 1.000000
vt 0.000000 1.000000
vt 0.000000 0.000000
vt 1.000000 1.000000
vt 0.000000 1.000000
vt 0.000000 0.000000
vt 1.000000 1.000000
vt 0.000000 1.000000
vt 0.000000 0.000000
vt 1.000000 1.000000
vt 0.000000 1.000000
vt 0.000000 0.000000
vt 1.000000 1.000000
vt 0.000000 1.000000
vt 0.000000 0.000000
vt 1.000000 1.000000
vt 0.000000 1.000000
vt 0.000000 0.000000
vt 1.000000 1.000000
vt 0.000000 1.000000
vt 0.000000 0.000000
vt 1.000000 1.000000
vt 0.000000 1.000000
vt 0.000000 0.000000
vt 1.000000 1.000000
vt 0.000000 1.000000
vt 0.000000 0.000000
vt 1.000000 1.000000
vt 0.000000 1.000000
vt 0.000000 0.000000
vt 1.000000 1.000000
vt 0.000000 1.000000
vt 1.000000 1.000000
vt 0.000000 1.000000
vt 1.000000 0.000000
vt 1.000000 1.000000
vt 0.000000 0.000000
vt 1.000000 0.000000
vt 0.000000 1.000000
vt 0.000000 0.000000
vt 1.000000 0.000000
vt 0.000000 1.000000
vt 0.000000 0.000000
vt 1.000000 0.000000
vt 0.000000 1.000000
vt 0.000000 0.000000
vt 1.000000 0.000000
vt 0.000000 1.000000
vt 0.000000 0.000000
vt 1.000000 0.000000
vt 0.000000 1.000000
vt 0.000000 0.000000
vt 1.000000 0.000000
vt 0.000000 1.000000
vt 0.000000 0.000000
vt 1.000000 0.000000
vt 0.000000 1.000000
vt 0.000000 0.000000
vt 1.000000 0.000000
vt 0.000000 1.000000
vt 0.000000 0.000000
vt 1.000000 0.000000
vt 0.000000 1.000000
vt 0.000000 0.000000
vt 1.000000 0.000000
vt 0.000000 1.000000
vt 0.000000 0.000000
vt 1.000000 0.000000
vt 0.000000 1.000000
vt 0.000000 0.000000
vt 1.000000 0.000000
vt 0.000000 1.000000
vt 0.000000 0.000000
vt 1.000000 0.000000
vt 0.000000 1.000000
vt 0.000000 0.000000
vt 1.000000 0.000000
vt 0.000000 1.000000
vt 0.000000 0.000000
vt 1.000000 0.000000
vt 0.000000 1.000000
vt 0.000000 0.000000
vt 1.000000 0.000000
vt 0.000000 1.000000
vt 0.000000 0.000000
vt 1.000000 0.000000
vt 0.000000 1.000000
vt 0.000000 0.000000
vt 1.000000 0.000000
vt 0.000000 1.000000
vt 0.000000 0.000000
vt 1.000000 0.000000
vt 0.000000 1.000000
vt 0.000000 0.000000
vt 1.000000 0.000000
vt 0.000000 1.000000
vt 0.000000 0.000000
vt 1.000000 0.000000
vt 0.000000 1.000000
vt 0.000000 0.000000
vt 1.000000 0.000000
vt 0.000000 1.000000
vt 0.000000 0.000000
vt 1.000000 0.000000
vt 0.000000 1.000000
vt 0.000000 0.000000
vt 1.000000 0.000000
vt 0.000000 1.000000
vt 0.000000 0.000000
vt 1.000000 0.000000
vt 0.000000 1.000000
vt 0.000000 0.000000
vt 1.000000 0.000000
vt 0.000000 1.000000
vt 0.000000 0.000000
vt 1.000000 0.000000
vt 0.000000 1.000000
vt 0.000000 0.000000
vt 1.000000 0.000000
vt 0.000000 1.000000
vt 0.000000 0.000000
vt 1.000000 0.000000
vt 0.000000 1.000000
vt 0.000000 0.000000
vt 1.000000 0.000000
vt 1.000000 0.000000
vt 1.000000 1.000000
vt 1.000000 0.000000
vt 1.000000 1.000000
vt 1.000000 0.000000
vt 1.000000 1.000000
vt 1.000000 0.000000
vt 1.000000 1.000000
vt 1.000000 0.000000
vt 1.000000 1.000000
vt 1.000000 0.000000
vt 1.000000 1.000000
vt 1.000000 0.000000
vt 1.000000 1.000000
vt 1.000000 0.000000
vt 1.000000 1.000000
vt 1.000000 0.000000
vt 1.000000 1.000000
vt 1.000000 0.000000
vt 1.000000 1.000000
vt 1.000000 0.000000
vt 1.000000 1.000000
vt 1.000000 0.000000
vt 1.000000 1.000000
vt 1.000000 0.000000
vt 1.000000 1.000000
vt 1.000000 0.000000
vt 1.000000 1.000000
vt 1.000000 0.000000
vt 1.000000 1.000000
vt 1.000000 0.000000
vt 1.000000 1.000000
vt 1.000000 0.000000
vt 1.000000 1.000000
vt 1.000000 0.000000
vt 1.000000 1.000000
vt 1.000000 0.000000
vt 1.000000 1.000000
vt 1.000000 0.000000
vt 1.000000 1.000000
vt 1.000000 0.000000
vt 1.000000 1.000000
vt 1.000000 0.000000
vt 1.000000 1.000000
vt 1.000000 0.000000
vt 1.000000 1.000000
vt 1.000000 0.000000
vt 1.000000 1.000000
vt 1.000000 0.000000
vt 1.000000 1.000000
vt 1.000000 0.000000
vt 1.000000 1.000000
vt 1.000000 0.000000
vt 1.000000 1.000000
vt 1.000000 0.000000
vt 1.000000 1.000000
vt 1.000000 0.000000
vt 1.000000 1.000000
vt 0.000000 0.000000
vt 1.000000 0.000000
vt 0.000000 1.000000
vt 0.000000 0.000000
vt 1.000000 0.000000
vt 0.000000 1.000000
vn -0.5773 -0.7887 0.2113
vn -0.5773 0.2113 0.7887
vn -0.3535 0.3062 0.8839
vn -0.5000 -0.4330 0.7500
vn 0.3535 0.3062 0.8839
vn 0.5000 -0.4330 0.7500
vn 0.5773 0.2113 0.7887
vn 0.5773 -0.7887 0.2113
vn 0.8256 0.0839 0.5579
vn -0.8256 0.0839 0.5579
vn -0.4890 -0.4070 0.7715
vn 0.4890 -0.4070 0.7715
vn -0.0984 0.6635 -0.7417
vn 0.3339 -0.4896 -0.8054
vn -0.3339 -0.4896 -0.8054
vn 0.0984 0.6635 -0.7417
vn -0.5393 -0.5159 -0.6655
vn 0.5392 -0.5159 -0.6655
vn 0.2785 -0.6725 -0.6857
vn 0.2785 -0.6725 0.6857
vn 0.3638 -0.4612 0.8093
vn 0.4044 -0.6052 -0.6857
vn 0.4044 -0.6052 0.6857
vn 0.5147 -0.5147 -0.6857
vn 0.5147 -0.5147 0.6857
vn 0.6052 -0.4044 -0.6857
vn 0.6052 -0.4044 0.6857
vn 0.6725 -0.2785 -0.6857
vn 0.6725 -0.2785 0.6857
vn 0.7139 -0.1420 -0.6857
vn 0.7139 -0.1420 0.6857
vn 0.7279 0.0000 -0.6857
vn 0.7279 0.0000 0.6857
vn 0.7139 0.1420 -0.6857
vn 0.7139 0.1420 0.6857
vn 0.6725 0.2785 -0.6857
vn 0.6725 0.2785 0.6857
vn 0.6052 0.4044 -0.6857
vn 0.6052 0.4044 0.6857
vn 0.5147 0.5147 -0.6857
vn 0.5147 0.5147 0.6857
vn 0.4044 0.6052 -0.6857
vn 0.4044 0.6052 0.6857
vn 0.2785 0.6725 -0.6857
vn 0.2785 0.6725 0.6857
vn 0.1420 0.7139 -0.6857
vn 0.1420 0.7139 0.6857
vn 0.0000 0.7279 -0.6857
vn 0.0000 0.7279 0.6857
vn -0.1420 0.7139 -0.6857
vn -0.1420 0.7139 0.6857
vn -0.2785 0.6725 -0.6857
vn -0.2785 0.6725 0.6857
vn -0.4044 0.6052 -0.6857
vn -0.4044 0.6052 0.6857
vn -0.5147 0.5147 -0.6857
vn -0.5147 0.5147 0.6857
vn -0.6052 0.4044 -0.6857
vn -0.6052 0.4044 0.6857
vn -0.6725 0.2785 -0.6857
vn -0.6725 0.2785 0.6857
vn -0.7139 0.1420 -0.6857
vn -0.7139 0.1420 0.6857
vn -0.7279 0.0000 -0.6857
vn -0.7279 0.0000 0.6857
vn -0.7139 -0.1420 -0.6857
vn -0.7139 -0.1420 0.6857
vn -0.6725 -0.2785 -0.6857
vn -0.6725 -0.2785 0.6857
vn -0.6052 -0.4044 -0.6857
vn -0.6052 -0.4044 0.6857
vn -0.5147 -0.5147 -0.6857
vn -0.5147 -0.5147 0.6857
vn -0.4044 -0.6052 -0.6857
vn -0.4044 -0.6052 0.6857
vn -0.2785 -0.6725 -0.6857
vn -0.2785 -0.6725 0.6857
vn 0.2616 0.6316 -0.7298
vn 0.2616 0.6316 0.7298
vn 0.0984 0.6635 0.7417
vn -0.3638 -0.4612 0.8093
vn -0.0984 0.6635 0.7417
vn -0.2616 0.6316 -0.7298
vn -0.3798 0.5684 -0.7298
vn -0.4834 0.4834 -0.7298
vn -0.5684 0.3798 -0.7298
vn -0.6316 0.2616 -0.7298
vn -0.6705 0.1334 -0.7298
vn -0.6836 0.0000 -0.7298
vn -0.6705 -0.1334 -0.7298
vn -0.6316 -0.2616 -0.7298
vn -0.5684 -0.3798 -0.7298
vn -0.4834 -0.4834 -0.7298
vn -0.3798 -0.5684 -0.7298
vn -0.2616 -0.6316 -0.7298
vn -0.1333 -0.6705 -0.7298
vn 0.0000 -0.6836 -0.7298
vn 0.1334 -0.6705 -0.7298
vn 0.2616 -0.6316 -0.7298
vn 0.3798 -0.5684 -0.7298
vn 0.4834 -0.4834 -0.7298
vn 0.5684 -0.3798 -0.7298
vn 0.6316 -0.2616 -0.7298
vn 0.6705 -0.1333 -0.7298
vn 0.6836 0.0000 -0.7298
vn 0.6705 0.1333 -0.7298
vn 0.6316 0.2616 -0.7298
vn 0.5684 0.3798 -0.7298
vn 0.4834 0.4834 -0.7298
vn 0.3798 0.5684 -0.7298
vn -0.2616 0.6316 0.7298
vn -0.3798 0.5684 0.7298
vn -0.4834 0.4834 0.7298
vn -0.5684 0.3798 0.7298
vn -0.6316 0.2616 0.7298
vn -0.6705 0.1334 0.7298
vn -0.6836 0.0000 0.7298
vn -0.6705 -0.1334 0.7298
vn -0.6316 -0.2616 0.7298
vn -0.5684 -0.3798 0.7298
vn -0.4834 -0.4834 0.7298
vn -0.3798 -0.5684 0.7298
vn -0.2616 -0.6316 0.7298
vn -0.1333 -0.6705 0.7298
vn 0.0000 -0.6836 0.7298
vn 0.1334 -0.6705 0.7298
vn 0.2616 -0.6316 0.7298
vn 0.3798 -0.5684 0.7298
vn 0.4834 -0.4834 0.7298
vn 0.5684 -0.3798 0.7298
vn 0.6316 -0.2616 0.7298
vn 0.6705 -0.1333 0.7298
vn 0.6836 0.0000 0.7298
vn 0.6705 0.1333 0.7298
vn 0.6316 0.2616 0.7298
vn 0.5684 0.3798 0.7298
vn 0.4834 0.4834 0.7298
vn 0.3798 0.5684 0.7298
usemtl None
s 1
f 1/1/1 2/2/2 4/3/3 3/4/4
f 4/5/3 8/6/5 12/7/5 10/8/3
f 7/9/6 8/6/5 6/10/7 5/11/8
f 5/12/8 6/13/7 2/14/2 1/15/1
f 3/16/4 7/17/6 5/18/8 1/15/1
f 8/19/5 4/20/3 2/14/2 6/21/7
f 10/22/3 12/23/5 16/24/9 14/25/10
f 3/16/4 4/20/3 10/26/3 9/27/11
f 8/19/5 7/17/6 11/28/12 12/29/5
f 7/9/6 3/30/4 9/31/11 11/32/12
f 17/33/13 79/34/14 109/35/15 77/36/16
f 9/37/11 10/38/3 14/39/10 13/40/17
f 12/41/5 11/42/12 15/43/18 16/44/9
f 11/45/12 9/46/11 13/47/17 15/48/18
f 79/49/14 80/50/19 111/51/20 110/52/21
f 80/53/19 81/54/22 112/55/23 111/56/20
f 81/57/22 82/58/24 113/59/25 112/60/23
f 82/61/24 83/62/26 114/63/27 113/64/25
f 83/65/26 84/66/28 115/67/29 114/68/27
f 84/69/28 85/70/30 116/71/31 115/72/29
f 85/73/30 86/74/32 117/75/33 116/76/31
f 86/77/32 87/78/34 118/79/35 117/80/33
f 87/81/34 88/82/36 119/83/37 118/84/35
f 88/85/36 89/86/38 120/87/39 119/88/37
f 89/89/38 90/90/40 121/91/41 120/92/39
f 90/93/40 91/94/42 122/95/43 121/96/41
f 91/97/42 92/98/44 123/99/45 122/100/43
f 92/101/44 93/102/46 124/103/47 123/104/45
f 93/105/46 94/106/48 125/107/49 124/108/47
f 94/109/48 95/110/50 126/111/51 125/112/49
f 95/113/50 96/114/52 127/115/53 126/116/51
f 96/117/52 97/118/54 128/119/55 127/120/53
f 97/121/54 98/122/56 129/123/57 128/124/55
f 98/125/56 99/126/58 130/127/59 129/128/57
f 99/129/58 100/130/60 131/131/61 130/132/59
f 100/133/60 101/134/62 132/135/63 131/136/61
f 101/137/62 102/138/64 133/139/65 132/140/63
f 102/141/64 103/142/66 134/143/67 133/144/65
f 103/145/66 104/146/68 135/147/69 134/148/67
f 104/149/68 105/150/70 136/151/71 135/152/69
f 105/153/70 106/154/72 137/155/73 136/156/71
f 106/157/72 107/158/74 138/159/75 137/160/73
f 107/161/74 108/162/76 139/163/77 138/164/75
f 77/165/16 75/166/78 76/167/79 78/168/80
f 108/169/76 109/170/15 140/171/81 139/172/77
f 15/173/18 13/174/17 109/35/15 79/175/14
f 78/176/80 140/177/81 110/178/21 18/179/82
f 19/180/83 80/50/19 79/181/14 17/182/13
f 21/183/84 81/54/22 80/184/19 19/185/83
f 23/186/85 82/58/24 81/187/22 21/188/84
f 25/189/86 83/62/26 82/190/24 23/191/85
f 27/192/87 84/66/28 83/193/26 25/194/86
f 29/195/88 85/70/30 84/196/28 27/197/87
f 31/198/89 86/74/32 85/199/30 29/200/88
f 33/201/90 87/78/34 86/202/32 31/203/89
f 35/204/91 88/82/36 87/205/34 33/206/90
f 37/207/92 89/86/38 88/208/36 35/209/91
f 39/210/93 90/90/40 89/211/38 37/212/92
f 41/213/94 91/94/42 90/214/40 39/215/93
f 43/216/95 92/98/44 91/217/42 41/218/94
f 45/219/96 93/102/46 92/220/44 43/221/95
f 47/222/97 94/106/48 93/223/46 45/224/96
f 49/225/98 95/110/50 94/226/48 47/227/97
f 51/228/99 96/114/52 95/229/50 49/230/98
f 53/231/100 97/118/54 96/232/52 51/233/99
f 55/234/101 98/122/56 97/235/54 53/236/100
f 57/237/102 99/126/58 98/238/56 55/239/101
f 59/240/103 100/130/60 99/241/58 57/242/102
f 61/243/104 101/134/62 100/244/60 59/245/103
f 63/246/105 102/138/64 101/247/62 61/248/104
f 65/249/106 103/142/66 102/250/64 63/251/105
f 67/252/107 104/146/68 103/253/66 65/254/106
f 69/255/108 105/150/70 104/256/68 67/257/107
f 71/258/109 106/154/72 105/259/70 69/260/108
f 73/261/110 107/158/74 106/262/72 71/263/109
f 75/264/78 108/162/76 107/265/74 73/266/110
f 77/165/16 109/170/15 108/267/76 75/268/78
f 17/33/13 77/269/16 78/270/80 18/179/82
f 18/271/82 110/272/21 111/51/20 20/273/111
f 20/274/111 111/275/20 112/55/23 22/276/112
f 22/277/112 112/278/23 113/59/25 24/279/113
f 24/280/113 113/281/25 114/63/27 26/282/114
f 26/283/114 114/284/27 115/67/29 28/285/115
f 28/286/115 115/287/29 116/71/31 30/288/116
f 30/289/116 116/290/31 117/75/33 32/291/117
f 32/292/117 117/293/33 118/79/35 34/294/118
f 34/295/118 118/296/35 119/83/37 36/297/119
f 36/298/119 119/299/37 120/87/39 38/300/120
f 38/301/120 120/302/39 121/91/41 40/303/121
f 40/304/121 121/305/41 122/95/43 42/306/122
f 42/307/122 122/308/43 123/99/45 44/309/123
f 44/310/123 123/311/45 124/103/47 46/312/124
f 46/313/124 124/314/47 125/107/49 48/315/125
f 48/316/125 125/317/49 126/111/51 50/318/126
f 50/319/126 126/320/51 127/115/53 52/321/127
f 52/322/127 127/323/53 128/119/55 54/324/128
f 54/325/128 128/326/55 129/123/57 56/327/129
f 56/328/129 129/329/57 130/127/59 58/330/130
f 58/331/130 130/332/59 131/131/61 60/333/131
f 60/334/131 131/335/61 132/135/63 62/336/132
f 62/337/132 132/338/63 133/139/65 64/339/133
f 64/340/133 133/341/65 134/143/67 66/342/134
f 66/343/134 134/344/67 135/147/69 68/345/135
f 68/346/135 135/347/69 136/151/71 70/348/136
f 70/349/136 136/350/71 137/155/73 72/351/137
f 72/352/137 137/353/73 138/159/75 74/354/138
f 74/355/138 138/356/75 139/163/77 76/357/79
f 76/358/79 139/359/77 140/171/81 78/168/80
f 75/264/78 73/360/110 74/361/138 76/357/79
f 73/261/110 71/362/109 72/363/137 74/354/138
f 71/258/109 69/364/108 70/365/136 72/351/137
f 69/255/108 67/366/107 68/367/135 70/348/136
f 67/252/107 65/368/106 66/369/134 68/345/135
f 65/249/106 63/370/105 64/371/133 66/342/134
f 63/246/105 61/372/104 62/373/132 64/339/133
f 61/243/104 59/374/103 60/375/131 62/336/132
f 59/240/103 57/376/102 58/377/130 60/333/131
f 57/237/102 55/378/101 56/379/129 58/330/130
f 55/234/101 53/380/100 54/381/128 56/327/129
f 53/231/100 51/382/99 52/383/127 54/324/128
f 51/228/99 49/384/98 50/385/126 52/321/127
f 49/225/98 47/386/97 48/387/125 50/318/126
f 47/222/97 45/388/96 46/389/124 48/315/125
f 45/219/96 43/390/95 44/391/123 46/312/124
f 43/216/95 41/392/94 42/393/122 44/309/123
f 41/213/94 39/394/93 40/395/121 42/306/122
f 39/210/93 37/396/92 38/397/120 40/303/121
f 37/207/92 35/398/91 36/399/119 38/300/120
f 35/204/91 33/400/90 34/401/118 36/297/119
f 33/201/90 31/402/89 32/403/117 34/294/118
f 31/198/89 29/404/88 30/405/116 32/291/117
f 29/195/88 27/406/87 28/407/115 30/288/116
f 27/192/87 25/408/86 26/409/114 28/285/115
f 25/189/86 23/410/85 24/411/113 26/282/114
f 23/186/85 21/412/84 22/413/112 24/279/113
f 21/183/84 19/414/83 20/415/111 22/276/112
f 19/180/83 17/416/13 18/417/82 20/273/111
f 14/418/10 16/419/9 110/178/21 140/420/81
f 15/173/18 79/34/14 110/178/21 16/44/9
f 13/421/17 14/422/10 140/171/81 109/423/15
