# Blender v2.79 (sub 0) OBJ File: 'body.obj'
# www.blender.org
mtllib body.mtl
o Pencil
v 0.003200 -0.050121 0.024261
v -0.003527 -0.039672 -0.085342
v 0.013637 -0.043696 0.024261
v -0.006032 -0.036286 -0.085206
v 0.016086 -0.032352 0.024261
v -0.005183 -0.032444 -0.085262
v 0.009112 -0.022735 0.024261
v -0.001254 -0.030064 -0.085397
v -0.003200 -0.020479 0.024261
v 0.003527 -0.030928 -0.085342
v -0.013637 -0.026905 0.024261
v 0.006032 -0.034314 -0.085206
v -0.016086 -0.038248 0.024261
v 0.005183 -0.038156 -0.085262
v -0.009112 -0.047865 0.024261
v 0.001254 -0.040537 -0.085397
v -0.009112 -0.047865 -0.065864
v -0.016086 -0.038248 -0.065864
v -0.013637 -0.026905 -0.065864
v -0.003200 -0.020479 -0.065864
v 0.009112 -0.022735 -0.065864
v 0.016086 -0.032352 -0.065864
v 0.013637 -0.043696 -0.065864
v 0.003200 -0.050121 -0.065864
v 0.016086 -0.032352 0.012865
v 0.009112 -0.022735 0.012865
v -0.003200 -0.020479 0.012865
v -0.013637 -0.026905 0.012865
v -0.016086 -0.038248 0.012865
v -0.009112 -0.047865 0.012865
v 0.003200 -0.050121 0.012865
v 0.013637 -0.043696 0.012865
v 0.016086 -0.032352 0.001029
v 0.009112 -0.022735 0.001029
v -0.003200 -0.020479 0.001029
v -0.013637 -0.026905 0.001029
v -0.016086 -0.038248 0.001029
v -0.009112 -0.047865 0.001029
v 0.003200 -0.050121 0.001029
v 0.013637 -0.043696 0.001029
v 0.000000 -0.035300 0.024261
v 0.000000 -0.035300 -0.089879
vt 0.171365 0.499355
vt 0.664851 0.499355
vt 0.664851 0.591692
vt 0.171365 0.591692
vt 0.171365 0.411719
vt 0.664851 0.411719
vt 0.171365 0.767725
vt 0.664851 0.767725
vt 0.664851 0.855361
vt 0.171365 0.855361
vt 0.171365 0.682112
vt 0.664851 0.682112
vt 0.171365 0.326106
vt 0.664851 0.326106
vt 0.171365 0.235686
vt 0.664851 0.235686
vt 0.171365 0.143349
vt 0.664851 0.143349
vt 0.804418 0.294458
vt 0.802521 0.315583
vt 0.665098 0.370096
vt 0.665098 0.242525
vt 0.842938 0.327602
vt 0.860409 0.313703
vt 0.999730 0.365636
vt 0.900511 0.464813
vt 0.821889 0.280559
vt 0.764316 0.143349
vt 0.819879 0.329822
vt 0.757023 0.464188
vt 0.862307 0.292578
vt 0.844948 0.278339
vt 0.907805 0.143973
vt 0.999730 0.238065
vt 0.084048 0.682112
vt -0.000024 0.682112
vt -0.000024 0.591692
vt 0.084048 0.591692
vt 0.084048 0.411719
vt -0.000024 0.411719
vt -0.000024 0.326106
vt 0.084048 0.326106
vt -0.000024 0.235686
vt 0.084048 0.235686
vt -0.000024 0.143349
vt 0.084048 0.143349
vt 0.084048 0.767725
vt -0.000024 0.767725
vt 0.084048 0.855361
vt -0.000024 0.855361
vt 0.084048 0.499355
vt -0.000024 0.499355
vt 0.820830 0.465059
vt 0.888020 0.525567
vt 0.777901 0.568352
vt 0.890704 0.611138
vt 0.827310 0.671646
vt 0.734972 0.671645
vt 0.667782 0.611138
vt 0.665098 0.525567
vt 0.728493 0.465059
vt 0.832414 0.304081
vn -0.1803 -0.9836 0.0000
vn -0.8095 -0.5871 0.0000
vn 0.8095 0.5871 0.0000
vn 0.9775 -0.2110 0.0000
vn 0.5243 -0.8516 0.0000
vn -0.9775 0.2110 0.0000
vn -0.5243 0.8516 0.0000
vn 0.1803 0.9836 0.0000
vn -0.6487 0.4503 -0.6135
vn -0.7705 -0.1593 -0.6172
vn -0.9531 -0.1997 -0.2274
vn -0.7965 0.5611 -0.2249
vn 0.1505 -0.7847 -0.6013
vn 0.6487 -0.4503 -0.6135
vn 0.7965 -0.5611 -0.2249
vn 0.1805 -0.9588 -0.2193
vn -0.1505 0.7847 -0.6013
vn -0.1805 0.9588 -0.2193
vn -0.4303 -0.6682 -0.6069
vn -0.5215 -0.8239 -0.2216
vn 0.7705 0.1593 -0.6172
vn 0.4303 0.6682 -0.6069
vn 0.5215 0.8239 -0.2216
vn 0.9531 0.1997 -0.2274
vn 0.8163 -0.5776 0.0000
vn 0.6349 -0.4492 0.6285
vn 0.1424 -0.7596 0.6346
vn 0.1842 -0.9829 0.0000
vn -0.9785 -0.2059 0.0000
vn -0.7632 -0.1606 0.6258
vn -0.6349 0.4492 0.6285
vn -0.8163 0.5776 0.0000
vn -0.1424 0.7596 0.6346
vn -0.1842 0.9829 0.0000
vn 0.4131 0.6555 0.6322
vn 0.5331 0.8460 0.0000
vn 0.9785 0.2059 0.0000
vn 0.7632 0.1606 0.6258
vn -0.5331 -0.8460 0.0000
vn -0.4131 -0.6555 0.6322
vn 0.0000 0.0000 1.0000
vn 0.0000 0.0000 -1.0000
usemtl Pencil
s off
f 38/1/1 17/2/1 24/3/1 39/4/1
f 37/5/2 18/6/2 17/2/2 38/1/2
f 33/7/3 22/8/3 21/9/3 34/10/3
f 40/11/4 23/12/4 22/8/4 33/7/4
f 23/12/5 40/11/5 39/4/5 24/3/5
f 18/6/6 37/5/6 36/13/6 19/14/6
f 19/14/7 36/13/7 35/15/7 20/16/7
f 20/16/8 35/15/8 34/17/8 21/18/8
s 1
f 6/19/9 4/20/10 18/21/11 19/22/12
f 16/23/13 14/24/14 23/25/15 24/26/16
f 8/27/17 6/19/9 19/22/12 20/28/18
f 2/29/19 16/23/13 24/26/16 17/30/20
f 12/31/21 10/32/22 21/33/23 22/34/24
f 4/20/10 2/29/19 17/30/20 18/21/11
f 14/24/14 12/31/21 22/34/24 23/25/15
f 10/32/22 8/27/17 20/28/18 21/33/23
f 32/35/25 3/36/26 1/37/27 31/38/28
f 29/39/29 13/40/30 11/41/31 28/42/32
f 28/42/32 11/41/31 9/43/33 27/44/34
f 27/44/34 9/43/33 7/45/35 26/46/36
f 35/15/34 27/44/34 26/46/36 34/17/36
f 3/36/26 32/35/25 25/47/37 5/48/38
f 5/48/38 25/47/37 26/49/36 7/50/35
f 36/13/32 28/42/32 27/44/34 35/15/34
f 37/5/29 29/39/29 28/42/32 36/13/32
f 13/40/30 29/39/29 30/51/39 15/52/40
f 15/52/40 30/51/39 31/38/28 1/37/27
f 40/11/25 32/35/25 31/38/28 39/4/28
f 32/35/25 40/11/25 33/7/37 25/47/37
f 25/47/37 33/7/37 34/10/36 26/49/36
f 29/39/29 37/5/29 38/1/39 30/51/39
f 30/51/39 38/1/39 39/4/28 31/38/28
f 1/53/27 3/54/26 41/55/41
f 3/54/26 5/56/38 41/55/41
f 5/56/38 7/57/35 41/55/41
f 7/57/35 9/58/33 41/55/41
f 9/58/33 11/59/31 41/55/41
f 11/59/31 13/60/30 41/55/41
f 13/60/30 15/61/40 41/55/41
f 15/61/40 1/53/27 41/55/41
f 4/20/10 6/19/9 42/62/42
f 6/19/9 8/27/17 42/62/42
f 8/27/17 10/32/22 42/62/42
f 10/32/22 12/31/21 42/62/42
f 12/31/21 14/24/14 42/62/42
f 14/24/14 16/23/13 42/62/42
f 16/23/13 2/29/19 42/62/42
f 2/29/19 4/20/10 42/62/42
