# Blender v2.79 (sub 0) OBJ File: 'body.obj'
# www.blender.org
mtllib tip.mtl
o Tip_PencilTip
v -0.003294 -0.039383 -0.085072
v -0.005634 -0.036221 -0.084945
v -0.004841 -0.032633 -0.084998
v -0.001171 -0.030409 -0.085123
v 0.003294 -0.031217 -0.085072
v 0.005635 -0.034379 -0.084945
v 0.004841 -0.037968 -0.084998
v 0.001171 -0.040191 -0.085123
v 0.000000 -0.035300 -0.095387
vt 0.897387 0.878935
vt 0.879916 0.892834
vt 0.869392 0.869312
vt 0.899285 0.857810
vt 0.841396 0.859690
vt 0.858867 0.845791
vt 0.839498 0.880815
vt 0.881926 0.843571
vt 0.856857 0.895054
vn 0.7327 -0.4939 -0.4682
vn 0.1731 -0.8813 -0.4397
vn 0.0000 0.0000 -1.0000
vn 0.8604 0.1723 -0.4795
vn -0.7327 0.4939 -0.4682
vn -0.1731 0.8813 -0.4397
vn -0.8604 -0.1723 -0.4795
vn 0.4918 0.7443 -0.4517
vn -0.4918 -0.7443 -0.4517
usemtl Pencil
s 1
f 7/1/1 8/2/2 9/3/3
f 6/4/4 7/1/1 9/3/3
f 3/5/5 4/6/6 9/3/3
f 2/7/7 3/5/5 9/3/3
f 5/8/8 6/4/4 9/3/3
f 4/6/6 5/8/8 9/3/3
f 1/9/9 2/7/7 9/3/3
f 1/9/9 9/3/3 8/2/2
